<mxfile host="app.diagrams.net" agent="Mozilla/5.0 (Windows NT 10.0; Win64; x64) AppleWebKit/537.36 (KHTML, like Gecko) Chrome/135.0.0.0 Safari/537.36 Edg/135.0.0.0" version="26.2.9">
  <diagram name="Page-1" id="74e2e168-ea6b-b213-b513-2b3c1d86103e">
    <mxGraphModel dx="1036" dy="578" grid="1" gridSize="10" guides="1" tooltips="1" connect="1" arrows="1" fold="1" page="1" pageScale="1" pageWidth="1100" pageHeight="850" background="none" math="0" shadow="0">
      <root>
        <mxCell id="0" />
        <mxCell id="1" parent="0" />
        <mxCell id="M-kyO09xavbFvte0q2Iz-1" value="" style="ellipse;html=1;shape=startState;fillColor=#000000;strokeColor=#ff0000;" vertex="1" parent="1">
          <mxGeometry x="120" y="80" width="30" height="30" as="geometry" />
        </mxCell>
        <mxCell id="M-kyO09xavbFvte0q2Iz-2" value="" style="edgeStyle=orthogonalEdgeStyle;html=1;verticalAlign=bottom;endArrow=open;endSize=8;strokeColor=#ff0000;rounded=0;entryX=0;entryY=0.5;entryDx=0;entryDy=0;" edge="1" source="M-kyO09xavbFvte0q2Iz-1" parent="1" target="M-kyO09xavbFvte0q2Iz-12">
          <mxGeometry relative="1" as="geometry">
            <mxPoint x="135" y="170" as="targetPoint" />
          </mxGeometry>
        </mxCell>
        <mxCell id="M-kyO09xavbFvte0q2Iz-3" value="" style="ellipse;html=1;shape=endState;fillColor=#000000;strokeColor=#ff0000;" vertex="1" parent="1">
          <mxGeometry x="120" y="470" width="30" height="30" as="geometry" />
        </mxCell>
        <mxCell id="M-kyO09xavbFvte0q2Iz-6" value="Клиент" style="text;align=center;fontStyle=1;verticalAlign=middle;spacingLeft=3;spacingRight=3;strokeColor=none;rotatable=0;points=[[0,0.5],[1,0.5]];portConstraint=eastwest;html=1;" vertex="1" parent="1">
          <mxGeometry x="250" y="70" width="80" height="26" as="geometry" />
        </mxCell>
        <mxCell id="M-kyO09xavbFvte0q2Iz-7" value="Система" style="text;align=center;fontStyle=1;verticalAlign=middle;spacingLeft=3;spacingRight=3;strokeColor=none;rotatable=0;points=[[0,0.5],[1,0.5]];portConstraint=eastwest;html=1;" vertex="1" parent="1">
          <mxGeometry x="470" y="70" width="80" height="26" as="geometry" />
        </mxCell>
        <mxCell id="M-kyO09xavbFvte0q2Iz-8" value="Администратор&amp;nbsp;" style="text;align=center;fontStyle=1;verticalAlign=middle;spacingLeft=3;spacingRight=3;strokeColor=none;rotatable=0;points=[[0,0.5],[1,0.5]];portConstraint=eastwest;html=1;" vertex="1" parent="1">
          <mxGeometry x="685" y="70" width="80" height="26" as="geometry" />
        </mxCell>
        <mxCell id="M-kyO09xavbFvte0q2Iz-9" value="" style="line;strokeWidth=1;fillColor=none;align=left;verticalAlign=middle;spacingTop=-1;spacingLeft=3;spacingRight=3;rotatable=0;labelPosition=right;points=[];portConstraint=eastwest;strokeColor=inherit;flipH=1;direction=south;" vertex="1" parent="1">
          <mxGeometry x="210" y="80" width="8" height="480" as="geometry" />
        </mxCell>
        <mxCell id="M-kyO09xavbFvte0q2Iz-10" value="" style="line;strokeWidth=1;fillColor=none;align=left;verticalAlign=middle;spacingTop=-1;spacingLeft=3;spacingRight=3;rotatable=0;labelPosition=right;points=[];portConstraint=eastwest;strokeColor=inherit;direction=south;" vertex="1" parent="1">
          <mxGeometry x="390" y="80" width="8" height="480" as="geometry" />
        </mxCell>
        <mxCell id="M-kyO09xavbFvte0q2Iz-11" value="" style="line;strokeWidth=1;fillColor=none;align=left;verticalAlign=middle;spacingTop=-1;spacingLeft=3;spacingRight=3;rotatable=0;labelPosition=right;points=[];portConstraint=eastwest;strokeColor=inherit;direction=south;" vertex="1" parent="1">
          <mxGeometry x="620" y="80" width="8" height="480" as="geometry" />
        </mxCell>
        <mxCell id="M-kyO09xavbFvte0q2Iz-14" style="edgeStyle=orthogonalEdgeStyle;rounded=0;orthogonalLoop=1;jettySize=auto;html=1;" edge="1" parent="1" source="M-kyO09xavbFvte0q2Iz-12" target="M-kyO09xavbFvte0q2Iz-13">
          <mxGeometry relative="1" as="geometry" />
        </mxCell>
        <mxCell id="M-kyO09xavbFvte0q2Iz-12" value="Регистрируется на сайте франчайзи" style="text;html=1;align=center;verticalAlign=middle;whiteSpace=wrap;rounded=0;" vertex="1" parent="1">
          <mxGeometry x="240" y="130" width="120" height="30" as="geometry" />
        </mxCell>
        <mxCell id="M-kyO09xavbFvte0q2Iz-16" value="" style="edgeStyle=orthogonalEdgeStyle;rounded=0;orthogonalLoop=1;jettySize=auto;html=1;" edge="1" parent="1" source="M-kyO09xavbFvte0q2Iz-13" target="M-kyO09xavbFvte0q2Iz-15">
          <mxGeometry relative="1" as="geometry" />
        </mxCell>
        <mxCell id="M-kyO09xavbFvte0q2Iz-13" value="С помощью email подтверждает пользователя&amp;nbsp;" style="text;html=1;align=center;verticalAlign=middle;whiteSpace=wrap;rounded=0;" vertex="1" parent="1">
          <mxGeometry x="450" y="120" width="130" height="40" as="geometry" />
        </mxCell>
        <mxCell id="M-kyO09xavbFvte0q2Iz-22" style="edgeStyle=orthogonalEdgeStyle;rounded=0;orthogonalLoop=1;jettySize=auto;html=1;" edge="1" parent="1" source="M-kyO09xavbFvte0q2Iz-15" target="M-kyO09xavbFvte0q2Iz-21">
          <mxGeometry relative="1" as="geometry" />
        </mxCell>
        <mxCell id="M-kyO09xavbFvte0q2Iz-15" value="Отправляет код франчайзи" style="text;html=1;align=center;verticalAlign=middle;whiteSpace=wrap;rounded=0;" vertex="1" parent="1">
          <mxGeometry x="450" y="240" width="130" height="40" as="geometry" />
        </mxCell>
        <mxCell id="M-kyO09xavbFvte0q2Iz-31" style="edgeStyle=orthogonalEdgeStyle;rounded=0;orthogonalLoop=1;jettySize=auto;html=1;" edge="1" parent="1" source="M-kyO09xavbFvte0q2Iz-19" target="M-kyO09xavbFvte0q2Iz-28">
          <mxGeometry relative="1" as="geometry" />
        </mxCell>
        <mxCell id="M-kyO09xavbFvte0q2Iz-33" style="edgeStyle=orthogonalEdgeStyle;rounded=0;orthogonalLoop=1;jettySize=auto;html=1;entryX=1;entryY=0.5;entryDx=0;entryDy=0;" edge="1" parent="1" source="M-kyO09xavbFvte0q2Iz-19" target="M-kyO09xavbFvte0q2Iz-32">
          <mxGeometry relative="1" as="geometry">
            <Array as="points">
              <mxPoint x="735" y="405" />
            </Array>
          </mxGeometry>
        </mxCell>
        <mxCell id="M-kyO09xavbFvte0q2Iz-19" value="Составляет договор аренды с клиентом" style="text;html=1;align=center;verticalAlign=middle;whiteSpace=wrap;rounded=0;" vertex="1" parent="1">
          <mxGeometry x="670" y="317.5" width="130" height="50" as="geometry" />
        </mxCell>
        <mxCell id="M-kyO09xavbFvte0q2Iz-24" style="edgeStyle=orthogonalEdgeStyle;rounded=0;orthogonalLoop=1;jettySize=auto;html=1;entryX=0.5;entryY=0;entryDx=0;entryDy=0;" edge="1" parent="1" source="M-kyO09xavbFvte0q2Iz-21" target="M-kyO09xavbFvte0q2Iz-23">
          <mxGeometry relative="1" as="geometry" />
        </mxCell>
        <mxCell id="M-kyO09xavbFvte0q2Iz-21" value="Переходит на сайт" style="text;html=1;align=center;verticalAlign=middle;whiteSpace=wrap;rounded=0;" vertex="1" parent="1">
          <mxGeometry x="270" y="230" width="60" height="30" as="geometry" />
        </mxCell>
        <mxCell id="M-kyO09xavbFvte0q2Iz-25" style="edgeStyle=orthogonalEdgeStyle;rounded=0;orthogonalLoop=1;jettySize=auto;html=1;" edge="1" parent="1" source="M-kyO09xavbFvte0q2Iz-23" target="M-kyO09xavbFvte0q2Iz-19">
          <mxGeometry relative="1" as="geometry" />
        </mxCell>
        <mxCell id="M-kyO09xavbFvte0q2Iz-23" value="Бронирует торговый автомат&amp;nbsp;" style="text;html=1;align=center;verticalAlign=middle;whiteSpace=wrap;rounded=0;" vertex="1" parent="1">
          <mxGeometry x="240" y="320" width="120" height="45" as="geometry" />
        </mxCell>
        <mxCell id="M-kyO09xavbFvte0q2Iz-26" value="" style="line;strokeWidth=1;fillColor=none;align=left;verticalAlign=middle;spacingTop=-1;spacingLeft=3;spacingRight=3;rotatable=0;labelPosition=right;points=[];portConstraint=eastwest;strokeColor=inherit;direction=south;" vertex="1" parent="1">
          <mxGeometry x="840" y="80" width="8" height="480" as="geometry" />
        </mxCell>
        <mxCell id="M-kyO09xavbFvte0q2Iz-27" value="Инженер&amp;nbsp;" style="text;align=center;fontStyle=1;verticalAlign=middle;spacingLeft=3;spacingRight=3;strokeColor=none;rotatable=0;points=[[0,0.5],[1,0.5]];portConstraint=eastwest;html=1;" vertex="1" parent="1">
          <mxGeometry x="920" y="70" width="80" height="26" as="geometry" />
        </mxCell>
        <mxCell id="M-kyO09xavbFvte0q2Iz-36" style="edgeStyle=orthogonalEdgeStyle;rounded=0;orthogonalLoop=1;jettySize=auto;html=1;entryX=1;entryY=0.75;entryDx=0;entryDy=0;" edge="1" parent="1" source="M-kyO09xavbFvte0q2Iz-28" target="M-kyO09xavbFvte0q2Iz-34">
          <mxGeometry relative="1" as="geometry">
            <Array as="points">
              <mxPoint x="940" y="478" />
            </Array>
          </mxGeometry>
        </mxCell>
        <mxCell id="M-kyO09xavbFvte0q2Iz-28" value="Устанавливает автомат" style="text;html=1;align=center;verticalAlign=middle;whiteSpace=wrap;rounded=0;" vertex="1" parent="1">
          <mxGeometry x="920" y="327.5" width="60" height="30" as="geometry" />
        </mxCell>
        <mxCell id="M-kyO09xavbFvte0q2Iz-32" value="Подписывает договор" style="text;html=1;align=center;verticalAlign=middle;whiteSpace=wrap;rounded=0;" vertex="1" parent="1">
          <mxGeometry x="270" y="390" width="60" height="30" as="geometry" />
        </mxCell>
        <mxCell id="M-kyO09xavbFvte0q2Iz-38" style="edgeStyle=orthogonalEdgeStyle;rounded=0;orthogonalLoop=1;jettySize=auto;html=1;entryX=1;entryY=0.25;entryDx=0;entryDy=0;" edge="1" parent="1" source="M-kyO09xavbFvte0q2Iz-34" target="M-kyO09xavbFvte0q2Iz-37">
          <mxGeometry relative="1" as="geometry" />
        </mxCell>
        <mxCell id="M-kyO09xavbFvte0q2Iz-34" value="Подключает автомат к модему" style="text;html=1;align=center;verticalAlign=middle;whiteSpace=wrap;rounded=0;" vertex="1" parent="1">
          <mxGeometry x="670" y="440" width="130" height="50" as="geometry" />
        </mxCell>
        <mxCell id="M-kyO09xavbFvte0q2Iz-40" style="edgeStyle=orthogonalEdgeStyle;rounded=0;orthogonalLoop=1;jettySize=auto;html=1;entryX=1;entryY=0.5;entryDx=0;entryDy=0;" edge="1" parent="1" source="M-kyO09xavbFvte0q2Iz-37" target="M-kyO09xavbFvte0q2Iz-39">
          <mxGeometry relative="1" as="geometry" />
        </mxCell>
        <mxCell id="M-kyO09xavbFvte0q2Iz-37" value="Выводит информацию о сети модема и работе автомата&amp;nbsp;" style="text;html=1;align=center;verticalAlign=middle;whiteSpace=wrap;rounded=0;" vertex="1" parent="1">
          <mxGeometry x="430" y="460" width="130" height="30" as="geometry" />
        </mxCell>
        <mxCell id="M-kyO09xavbFvte0q2Iz-41" style="edgeStyle=orthogonalEdgeStyle;rounded=0;orthogonalLoop=1;jettySize=auto;html=1;entryX=1;entryY=0.5;entryDx=0;entryDy=0;" edge="1" parent="1" source="M-kyO09xavbFvte0q2Iz-39" target="M-kyO09xavbFvte0q2Iz-3">
          <mxGeometry relative="1" as="geometry" />
        </mxCell>
        <mxCell id="M-kyO09xavbFvte0q2Iz-39" value="Арендует автомат" style="text;html=1;align=center;verticalAlign=middle;whiteSpace=wrap;rounded=0;" vertex="1" parent="1">
          <mxGeometry x="260" y="460" width="60" height="30" as="geometry" />
        </mxCell>
      </root>
    </mxGraphModel>
  </diagram>
</mxfile>
